{"title":"Woe, Is Me - [&amp;] Delinquents Music Video (2010) MP4-BSAA.mp4","uid":6340091,"size":53152101,"categoryP":"video","categoryS":"music_videos","magnet":"?xt=urn:btih:cadd4626b0e63176650b1e2b3c4b829e85dae28a&amp;dn=Woe%2C+Is+Me+-+%5B%26%5D+Delinquents+Music+Video+%282010%29+MP4-BSAA.mp4&amp;tr=udp%3A%2F%2Ftracker.openbittorrent.com%3A80&amp;tr=udp%3A%2F%2Fopen.demonii.com%3A1337&amp;tr=udp%3A%2F%2Ftracker.coppersurfer.tk%3A6969&amp;tr=udp%3A%2F%2Fexodus.desync.com%3A6969","seeders":0,"leechers":1,"uploader":"xBSAACHRIS434x","files":1,"time":1303619511,"description":"Woe, Is Me - [&amp;] Delinquents Music Video (2010) MP4-BSAA.mp4\nFormat                           : MPEG-4\nFormat profile                   : Base Media / Version 2\nCodec ID                         : mp42\nFile size                        : 50.7 MiB\nDuration                         : 2mn 57s\nOverall bit rate                 : 2 402 Kbps\n\nVideo\nID                               : 1\nFormat                           : AVC\nFormat/Info                      : Advanced Video Codec\nFormat profile                   : &lt;a class=&quot;__cf_email__&quot; href=&quot;/cdn-cgi/l/email-protection&quot; data-cfemail=&quot;e1a9888689a1add2cfd0&quot;&gt;[email&amp;#160;protected]&lt;/a&gt;&lt;script cf-hash='f9e31' type=&quot;text/javascript&quot;&gt;\n/* &lt;![CDATA[ */!function(){try{var t=&quot;currentScript&quot;in document?document.currentScript:function(){for(var t=document.getElementsByTagName(&quot;script&quot;),e=t.length;e--;)if(t[e].getAttribute(&quot;cf-hash&quot;))return t[e]}();if(t&amp;&amp;t.previousSibling){var e,r,n,i,c=t.previousSibling,a=c.getAttribute(&quot;data-cfemail&quot;);if(a){for(e=&quot;&quot;,r=parseInt(a.substr(0,2),16),n=2;a.length-n;n+=2)i=parseInt(a.substr(n,2),16)^r,e+=String.fromCharCode(i);e=document.createTextNode(e),c.parentNode.replaceChild(e,c)}}}catch(u){}}();/* ]]&gt; */&lt;/script&gt;\nFormat settings, CABAC           : Yes\nFormat settings, ReFrames        : 1 frame\nCodec ID                         : avc1\nCodec ID/Info                    : Advanced Video Coding\nDuration                         : 2mn 57s\nBit rate mode                    : Variable\nBit rate                         : 2 268 Kbps\nMaximum bit rate                 : 5 069 Kbps\nWidth                            : 1 280 pixels\nHeight                           : 720 pixels\nDisplay aspect ratio             : 16:9\nFrame rate mode                  : Variable\nFrame rate                       : 23.976 fps\nMinimum frame rate               : 17.241 fps\nMaximum frame rate               : 24.390 fps\nColor space                      : YUV\nChroma subsampling               : 4:2:0\nBit depth                        : 8 bits\nScan type                        : Progressive\nBits/(Pixel*Frame)               : 0.103\nStream size                      : 47.9 MiB (94%)\nTagged date                      : UTC 2010-11-28 21:07:17\n\nAudio\nID                               : 2\nFormat                           : AAC\nFormat/Info                      : Advanced Audio Codec\nFormat profile                   : LC\nCodec ID                         : 40\nDuration                         : 2mn 57s\nBit rate mode                    : Variable\nBit rate                         : 128 Kbps\nMaximum bit rate                 : 217 Kbps\nChannel(s)                       : 2 channels\nChannel positions                : Front: L R\nSampling rate                    : 44.1 KHz\nCompression mode                 : Lossy\nStream size                      : 2.70 MiB (5%)","torrent":{"xt":"urn:btih:cadd4626b0e63176650b1e2b3c4b829e85dae28a","amp;dn":"Woe%2C+Is+Me+-+%5B%26%5D+Delinquents+Music+Video+%282010%29+MP4-BSAA.mp4","amp;tr":["udp%3A%2F%2Ftracker.openbittorrent.com%3A80","udp%3A%2F%2Fopen.demonii.com%3A1337","udp%3A%2F%2Ftracker.coppersurfer.tk%3A6969","udp%3A%2F%2Fexodus.desync.com%3A6969"],"infoHash":"cadd4626b0e63176650b1e2b3c4b829e85dae28a","infoHashBuffer":{"type":"Buffer","data":[202,221,70,38,176,230,49,118,101,11,30,43,60,75,130,158,133,218,226,138]},"announce":[],"urlList":[]}}